<svg width="95px" height="95px" viewBox="0 0 95 95" version="1.1" xmlns="http://www.w3.org/2000/svg" xmlns:xlink="http://www.w3.org/1999/xlink">
    <g id="Page-1" stroke="none" stroke-width="1" fill="none" fill-rule="evenodd">
        <g id="Group-3-Copy">
            <g id="icons/iconlib/identity-copy">
                <g id="identity" transform="translate(22.606780, 24.490678)">
                    <path d="M21.6648305,37.6779661 C21.6648305,34.7493229 18.2910305,30.8274268 14.1292373,30.8274268 C9.96744407,30.8274268 6.59364407,34.7493229 6.59364407,37.6779661 C6.59364407,37.6779661 21.6648305,37.6779661 21.6648305,37.6779661 Z" id="Oval-8" stroke="#666666" stroke-width="1.17"></path>
                    <ellipse id="Oval-7" stroke="#666666" stroke-width="1.17" cx="14.1292373" cy="23.1205701" rx="4.18644068" ry="4.28158706"></ellipse>
                    <path d="M19.4239831,0.585 L19.4239831,12.6022881 L29.5573729,12.6022881 L29.5573729,0.585 L19.4239831,0.585 Z" id="Rectangle-6" stroke="#666666" stroke-width="1.17"></path>
                    <polygon id="Rectangle-5" stroke="#666666" stroke-width="1.17" points="19.7809322 0.941949153 29.2004237 0.941949153 29.2004237 12.245339 19.7809322 12.245339"></polygon>
                    <path d="M28.2584746,33.9101695 L41.4457627,33.9101695" id="Path-12" stroke="#666666" stroke-width="1.17"></path>
                    <path d="M28.2584746,22.6067797 L41.4457627,22.6067797" id="Path-12" stroke="#666666" stroke-width="1.17"></path>
                    <path d="M28.2584746,28.2584746 L36.7360169,28.2584746" id="Path-12" stroke="#666666" stroke-width="1.17"></path>
                    <path d="M0,12.245339 L48.9813559,12.245339" id="Path-13" stroke="#666666" stroke-width="1.17"></path>
                    <path d="M29.2004237,5.65169492 L48.0405879,5.65169492 C48.5601597,5.65169492 48.9813559,6.06922497 48.9813559,6.5906133 L48.9813559,44.2746409 C48.9813559,44.7931912 48.5579093,45.2135593 48.0466261,45.2135593 L0.934729862,45.2135593 C0.418492814,45.2135593 0,44.7960293 0,44.2746409 L0,6.5906133 L0,6.5906133 C0,6.072063 0.414464158,5.65169492 0.943753871,5.65169492 L19.8437135,5.65169492" id="Rectangle-13" stroke="#666666" stroke-width="1.17"></path>
                    <circle id="Oval-10" fill="#666666" cx="24.490678" cy="6.59364407" r="1.88389831"></circle>
                </g>
            </g>
        </g>
    </g>
</svg>