<?xml version="1.0" encoding="UTF-8"?>
<svg width="95px" height="101px" viewBox="0 0 95 101" version="1.1" xmlns="http://www.w3.org/2000/svg" xmlns:xlink="http://www.w3.org/1999/xlink">
    <g id="Page-1" stroke="none" stroke-width="1" fill="none" fill-rule="evenodd">
        <g id="icons/iconlib/ticket-ver3-copy" stroke="#666666">
            <g id="signature" transform="translate(47.097458, 47.097458) rotate(-360.000000) translate(-47.097458, -47.097458) translate(30.142373, 19.780932)">
                <path d="M33.9101695,18.7447711 L33.9101695,54.6330508 L2.13162821e-14,54.6330508 L2.13162821e-14,18.7447711 C2.14975434,18.308394 3.76779661,16.4077726 3.76779661,14.1292373 C3.76779661,11.8507019 2.14975434,9.9500806 2.28705943e-14,9.5137035 L2.13162821e-14,2.84217094e-14 L33.9101695,2.84217094e-14 L33.9101695,9.5137035 C31.7604152,9.9500806 30.1423729,11.8507019 30.1423729,14.1292373 C30.1423729,16.4077726 31.7604152,18.308394 33.9101695,18.7447711 Z" id="Combined-Shape" stroke-width="1.17"></path>
                <path d="M6.59364407,14.1292373 L27.3165254,14.1292373" id="Path-36" stroke-width="1.17" stroke-dasharray="2.34,1.17"></path>
                <polygon id="Star-Copy" stroke-width="1.17" stroke-linecap="round" stroke-linejoin="round" points="16.9550847 32.9840034 11.4184465 36.8209525 13.3566866 30.3696141 7.99661595 26.2896408 14.7311524 26.1394435 16.9550847 19.7809322 19.1790171 26.1394435 25.9135535 26.2896408 20.5534829 30.3696141 22.4917229 36.8209525"></polygon>
                <path d="M6.59364407,47.0974576 L27.3165254,47.0974576" id="Path-36" stroke-width="1.17"></path>
                <path d="M6.59364407,42.3877119 L27.3165254,42.3877119" id="Path-36" stroke-width="1.17"></path>
            </g>
        </g>
    </g>
</svg>