<svg width="70px" height="61px" viewBox="0 0 70 61" version="1.1" xmlns="http://www.w3.org/2000/svg" xmlns:xlink="http://www.w3.org/1999/xlink">
    <g stroke="none" stroke-width="1" fill="none" fill-rule="evenodd">
        <g transform="translate(-0.406250, -0.992188)">
            <path d="M37.6014418,3.82782276 L67.9236581,55.8914894 C68.6463286,57.1323246 68.226273,58.7240605 66.9854378,59.4467309 C66.5881709,59.6781017 66.1366591,59.8 65.6769272,59.8 L4.55870986,59.8 C3.12276951,59.8 1.95870986,58.6359403 1.95870986,57.2 C1.95870986,56.7342977 2.08379282,56.2771434 2.32088671,55.8763129 L33.1168877,3.8126463 C33.8479399,2.5767307 35.4424823,2.16745805 36.6783979,2.89851025 C37.0603439,3.12443378 37.3781085,3.44435647 37.6014418,3.82782276 Z" stroke="#009DE0" stroke-width="2.6" stroke-linecap="round" stroke-linejoin="round"></path>
            <g transform="translate(32.500000, 24.700000)">
                <path d="M2.6,0 C2.25566114,6.32540223e-17 1.97651934,0.279141799 1.97651934,0.623480658 C1.97651934,0.632135418 1.97669955,0.64078924 1.97705985,0.649436498 L2.6,15.6 L3.22294015,0.649436498 C3.23727516,0.305396155 2.96999618,0.0148755264 2.62595584,0.000540512159 C2.61730858,0.000180209777 2.60865476,-1.58985366e-18 2.6,0 Z" stroke="#009DE0" stroke-width="2.6" stroke-linecap="round" stroke-linejoin="round"></path>
                <path d="M2.6,24.7 C4.03594035,24.7 5.2,23.5359403 5.2,22.1 C5.2,20.6640597 4.03594035,19.5 2.6,19.5 C1.16405965,19.5 0,20.6640597 0,22.1 C0,23.5359403 1.16405965,24.7 2.6,24.7 Z" fill="#009DE0" fill-rule="nonzero"></path>
            </g>
        </g>
    </g>
</svg>