<svg width="87" height="34" xmlns="http://www.w3.org/2000/svg" xmlns:xlink="http://www.w3.org/1999/xlink"><defs><path id="a" d="M0 .166h143.094v32.773H0z"/></defs><g fill="none" fill-rule="evenodd"><g transform="translate(-2.82 .292)"><mask id="b" fill="#fff"><use xlink:href="#a"/></mask><path d="M23.938 10.518H22.8v8.485h-2.462v-8.485h-1.136V8.816h4.736v1.702zm-6.065-4.404l-.001 15.595c0 2.022-1.651 3.068-3.688 3.068-2.036 0-3.701-.883-3.701-2.6h.002c0-.673.55-1.22 1.23-1.22.678 0 1.228.547 1.228 1.22h.001c0 1.247.1 2.093 1.24 2.093 1.226 0 1.226-.85 1.226-2.56V6.113c0-2.02 1.651-3.067 3.688-3.067 2.036 0 3.702.882 3.702 2.6h-.002c0 .673-.55 1.22-1.23 1.22a1.224 1.224 0 0 1-1.229-1.22h-.001c0-1.247-.1-2.093-1.24-2.093-1.226 0-1.225.848-1.225 2.56zm-7.386 2.702h2.455l.003 10.18h-2.46l.002-10.18zM3 .166v13.76C3 26.314 16.638 32.95 16.638 32.95s13.69-6.636 13.69-19.026V.165H3z" fill="#009DE0" mask="url(#b)"/></g><path fill="#45555F" d="M35.834 5.884h-2.82V4.191h7.55v1.693h-2.82v8.47h-1.91v-8.47M43.962 2.497c.713-.443 1.41-.885 2.017-1.358l.712 1.129c-.682.504-1.243.84-2.062 1.267l-.667-1.038zm-2.108 1.694h6.187v1.693h-4.276v2.458h3.942v1.693h-3.942v2.626h4.276v1.693h-6.187V4.191zM49.558 6.984c0-1.863 1.076-2.946 3.593-2.946.94 0 1.911.122 2.745.336l-.212 1.664c-.819-.154-1.774-.26-2.472-.26-1.319 0-1.744.458-1.744 1.541v3.907c0 1.083.425 1.541 1.744 1.541.698 0 1.653-.106 2.472-.26l.212 1.664c-.834.214-1.804.336-2.745.336-2.517 0-3.593-1.084-3.593-2.946V6.984M59.354 6.648v7.706h-1.865V4.191h2.547l3.836 7.721V4.191h1.865v10.163H63.19l-3.836-7.706M67.86 4.19h1.911v10.164h-1.91zM71.667 6.984c0-1.863 1.077-2.946 3.594-2.946.94 0 1.91.122 2.745.336l-.212 1.664c-.82-.154-1.774-.26-2.472-.26-1.32 0-1.744.458-1.744 1.541v3.907c0 1.083.425 1.541 1.744 1.541.698 0 1.653-.106 2.472-.26l.212 1.664c-.834.214-1.805.336-2.745.336-2.517 0-3.594-1.084-3.594-2.946V6.984M81.054 11.271c0 .962.485 1.542 1.91 1.542 1.426 0 1.91-.58 1.91-1.542V7.273c0-.96-.484-1.54-1.91-1.54-1.425 0-1.91.58-1.91 1.54v3.998zm5.731.107c0 1.694-.97 3.13-3.82 3.13-2.852 0-3.822-1.436-3.822-3.13V7.167c0-1.694.97-3.129 3.821-3.129 2.85 0 3.821 1.435 3.821 3.129v4.211zM36.969 25.42h4.513v.808h-5.4V16.065h.887v9.355M43.498 16.065h.888V26.23h-.888zM49.681 26.381c-.872 0-1.97-.153-2.828-.488l.166-.733a9.3 9.3 0 0 0 2.693.412c1.714 0 2.18-.519 2.18-1.815 0-1.572-.014-1.74-2.24-2.26-2.423-.564-2.694-1.007-2.694-3.05 0-1.665.602-2.534 3.114-2.534.873 0 1.911.152 2.588.35l-.105.764c-.738-.168-1.67-.305-2.453-.305-1.985 0-2.256.488-2.256 1.754 0 1.648.045 1.725 2.151 2.259 2.633.672 2.783 1.053 2.783 2.976 0 1.663-.556 2.67-3.099 2.67M60.513 22.856c0-.855-.496-1.435-1.655-1.435H56.06v4.014h3.054c.948 0 1.4-.473 1.4-1.282v-1.297zm-.316-4.914c0-.702-.39-1.083-1.248-1.083H56.06v3.77h2.588c1.098 0 1.549-.58 1.549-1.39v-1.297zm-5.024 8.286V16.065h3.76c1.354 0 2.152.657 2.152 1.999v1.221c0 .809-.331 1.343-1.144 1.648.783.107 1.46.764 1.46 1.893v1.327c0 1.404-1.008 2.075-2.302 2.075h-3.926zM69.39 23.329v-4.364c0-1.45-.693-2.243-2.619-2.243-1.925 0-2.617.793-2.617 2.243v4.364c0 1.45.692 2.243 2.617 2.243 1.926 0 2.618-.793 2.618-2.243zM66.77 26.38c-2.572 0-3.505-1.282-3.505-3.021v-4.426c0-1.74.933-3.021 3.505-3.021 2.573 0 3.506 1.281 3.506 3.021v4.426c0 1.74-.933 3.021-3.506 3.021zM73.767 22.78h4.122l-2.06-6.196-2.062 6.196zm4.393.778h-4.663l-.933 2.67h-.873l3.49-10.163h1.31l3.49 10.163h-.873l-.948-2.67z"/></g></svg>