<svg width="316" height="188" xmlns="http://www.w3.org/2000/svg" xmlns:xlink="http://www.w3.org/1999/xlink"><defs><path id="a" d="M.611 0h315.013v187.021H.611z"/></defs><g transform="translate(.133 .446)" fill="none" fill-rule="evenodd"><mask id="b" fill="#fff"><use xlink:href="#a"/></mask><use fill="#FFF" xlink:href="#a"/><ellipse fill-opacity=".8" fill="#111" mask="url(#b)" cx="83.995" cy="226.681" rx="144.995" ry="144.382"/><g stroke="#666" stroke-width="2.4" opacity=".05" mask="url(#b)"><path stroke-linecap="round" d="M153.348 55.28h11.924l-2.98 3.561 2.98 3.563h-11.924z"/><path d="M153.348 69.528V54.092M156.933 81.416h2.37v13.037h-2.37zM156.933 101.602v9.474h2.37v-9.474h-2.37zM147.393 81.416h2.37v13.037h-2.37zM147.393 101.602v9.474h2.37v-9.474h-2.37zM137.853 81.416h2.37v13.037h-2.37zM137.853 101.602v9.474h2.37v-9.474h-2.37zM166.473 81.416h2.37v13.037h-2.37zM166.472 101.602v9.474h2.37v-9.474h-2.37zM176.013 81.416h2.37v13.037h-2.37zM176.012 101.602v9.474h2.37v-9.474h-2.37zM193.9 84.978h2.37v9.474h-2.37zM193.9 101.602v9.474h2.37v-9.474h-2.37zM119.966 84.978h2.37v9.474h-2.37zM119.966 101.602v9.474h2.37v-9.474h-2.37z"/><path d="M186.745 77.853h16.68v35.598h-16.68zM112.81 77.853h16.68v35.598h-16.68zM110.426 73.104h21.45v4.725h-21.45zM184.36 73.104h21.45v4.725h-21.45zM129.506 68.354h57.224v4.725h-57.224z"/><path d="M108.034 113.463h207.59" stroke-linecap="round"/></g></g></svg>